# Blender v2.78 (sub 0) OBJ File: 'Device3.blend'
# www.blender.org
o Cone
v -0.048840 1.320094 -2.101671
v -0.047902 1.310566 -2.101671
v -0.045123 1.301404 -2.101671
v -0.040609 1.292960 -2.101671
v -0.034535 1.285559 -2.101671
v -0.027134 1.279485 -2.101671
v -0.018690 1.274971 -2.101671
v -0.009528 1.272192 -2.101671
v -0.000000 1.271254 -2.101671
v -0.000000 1.320094 -2.199352
v 0.009528 1.272192 -2.101671
v 0.018690 1.274971 -2.101671
v 0.027134 1.279485 -2.101671
v 0.034535 1.285559 -2.101671
v 0.040609 1.292960 -2.101671
v 0.045123 1.301404 -2.101671
v 0.047902 1.310566 -2.101671
v 0.048840 1.320094 -2.101671
v 0.047902 1.329622 -2.101671
v 0.045123 1.338784 -2.101671
v 0.040609 1.347228 -2.101671
v 0.034535 1.354629 -2.101671
v 0.027134 1.360703 -2.101671
v 0.018690 1.365216 -2.101671
v 0.009528 1.367996 -2.101671
v -0.000000 1.368934 -2.101671
v -0.009528 1.367996 -2.101671
v -0.018690 1.365216 -2.101671
v -0.027134 1.360703 -2.101671
v -0.034535 1.354629 -2.101671
v -0.040609 1.347228 -2.101671
v -0.045123 1.338784 -2.101671
v -0.047902 1.329622 -2.101671
vn -0.8910 -0.0878 -0.4455
vn -0.8567 -0.2599 -0.4455
vn -0.7896 -0.4220 -0.4455
vn -0.6921 -0.5680 -0.4455
vn -0.5680 -0.6921 -0.4455
vn -0.4220 -0.7896 -0.4455
vn -0.2599 -0.8567 -0.4455
vn -0.0877 -0.8910 -0.4455
vn 0.0877 -0.8910 -0.4455
vn 0.2599 -0.8567 -0.4455
vn 0.4220 -0.7896 -0.4455
vn 0.5680 -0.6921 -0.4455
vn 0.6921 -0.5680 -0.4455
vn 0.7896 -0.4220 -0.4455
vn 0.8567 -0.2599 -0.4455
vn 0.8910 -0.0878 -0.4455
vn 0.8910 0.0878 -0.4455
vn 0.8567 0.2599 -0.4455
vn 0.7896 0.4220 -0.4455
vn 0.6921 0.5680 -0.4455
vn 0.5680 0.6921 -0.4455
vn 0.4220 0.7896 -0.4455
vn 0.2599 0.8567 -0.4455
vn 0.0878 0.8910 -0.4455
vn -0.0878 0.8910 -0.4455
vn -0.2599 0.8567 -0.4455
vn -0.4220 0.7896 -0.4455
vn -0.5680 0.6921 -0.4455
vn -0.6921 0.5680 -0.4455
vn -0.7896 0.4220 -0.4455
vn -0.8567 0.2599 -0.4455
vn -0.8910 0.0878 -0.4455
vn 0.0000 0.0000 1.0000
vn -0.0001 0.0000 1.0000
vn 0.0001 0.0000 1.0000
vn 0.0002 0.0000 1.0000
vn -0.0002 0.0000 1.0000
s off
f 1//1 10//1 2//1
f 2//2 10//2 3//2
f 3//3 10//3 4//3
f 4//4 10//4 5//4
f 5//5 10//5 6//5
f 6//6 10//6 7//6
f 7//7 10//7 8//7
f 8//8 10//8 9//8
f 9//9 10//9 11//9
f 11//10 10//10 12//10
f 12//11 10//11 13//11
f 13//12 10//12 14//12
f 14//13 10//13 15//13
f 15//14 10//14 16//14
f 16//15 10//15 17//15
f 17//16 10//16 18//16
f 18//17 10//17 19//17
f 19//18 10//18 20//18
f 20//19 10//19 21//19
f 21//20 10//20 22//20
f 22//21 10//21 23//21
f 23//22 10//22 24//22
f 24//23 10//23 25//23
f 25//24 10//24 26//24
f 26//25 10//25 27//25
f 27//26 10//26 28//26
f 28//27 10//27 29//27
f 29//28 10//28 30//28
f 30//29 10//29 31//29
f 31//30 10//30 32//30
f 32//31 10//31 33//31
f 33//32 10//32 1//32
f 17//33 25//33 8//33
f 33//33 1//33 2//33
f 2//33 3//33 33//33
f 4//33 5//33 8//33
f 6//34 7//34 8//34
f 8//33 9//33 13//33
f 11//35 12//35 13//35
f 13//33 14//33 15//33
f 15//33 16//33 17//33
f 17//33 18//33 19//33
f 19//36 20//36 21//36
f 21//34 22//34 23//34
f 23//35 24//35 25//35
f 25//33 26//33 27//33
f 27//34 28//34 29//34
f 29//33 30//33 33//33
f 31//37 32//37 33//37
f 33//33 3//33 4//33
f 5//33 6//33 8//33
f 9//33 11//33 13//33
f 13//33 15//33 8//33
f 17//33 19//33 21//33
f 21//33 23//33 17//33
f 25//33 27//33 33//33
f 30//33 31//33 33//33
f 33//33 4//33 8//33
f 8//33 15//33 17//33
f 17//33 23//33 25//33
f 27//33 29//33 33//33
f 33//33 8//33 25//33
