# Blender v2.78 (sub 0) OBJ File: 'Device2.blend'
# www.blender.org
o Cylinder.001_Cylinder.003
v -0.103023 2.201831 -1.501341
v 0.103023 2.198169 -1.501341
v -0.103721 2.162550 -1.497473
v 0.102325 2.158889 -1.497473
v -0.104392 2.124779 -1.486015
v 0.101654 2.121118 -1.486015
v -0.105010 2.089970 -1.467409
v 0.101035 2.086309 -1.467409
v -0.105553 2.059459 -1.442370
v 0.100493 2.055798 -1.442370
v -0.105998 2.034419 -1.411859
v 0.100048 2.030758 -1.411859
v -0.106328 2.015813 -1.377050
v 0.099718 2.012152 -1.377050
v -0.106532 2.004355 -1.339280
v 0.099514 2.000694 -1.339280
v -0.106600 2.000486 -1.300000
v 0.099445 1.996825 -1.300000
v -0.106532 2.004355 -1.260720
v 0.099514 2.000694 -1.260720
v -0.106328 2.015813 -1.222950
v 0.099718 2.012152 -1.222950
v -0.105998 2.034419 -1.188141
v 0.100048 2.030758 -1.188141
v -0.105553 2.059459 -1.157630
v 0.100493 2.055798 -1.157630
v -0.105010 2.089970 -1.132591
v 0.101035 2.086309 -1.132591
v -0.104392 2.124779 -1.113985
v 0.101654 2.121118 -1.113985
v -0.103721 2.162550 -1.102527
v 0.102325 2.158889 -1.102527
v -0.103023 2.201831 -1.098658
v 0.103023 2.198169 -1.098658
v -0.102325 2.241111 -1.102527
v 0.103721 2.237450 -1.102527
v -0.101654 2.278882 -1.113985
v 0.104392 2.275221 -1.113985
v -0.101035 2.313692 -1.132591
v 0.105010 2.310030 -1.132591
v -0.100493 2.344203 -1.157630
v 0.105553 2.340541 -1.157630
v -0.100048 2.369242 -1.188141
v 0.105998 2.365581 -1.188141
v -0.099718 2.387848 -1.222950
v 0.106328 2.384187 -1.222950
v -0.099514 2.399306 -1.260720
v 0.106532 2.395645 -1.260720
v -0.099445 2.403175 -1.300000
v 0.106600 2.399514 -1.300000
v -0.099514 2.399306 -1.339280
v 0.106532 2.395645 -1.339280
v -0.099718 2.387848 -1.377050
v 0.106328 2.384187 -1.377050
v -0.100048 2.369242 -1.411860
v 0.105998 2.365581 -1.411860
v -0.100493 2.344202 -1.442370
v 0.105553 2.340541 -1.442370
v -0.101035 2.313691 -1.467409
v 0.105010 2.310030 -1.467409
v -0.101654 2.278882 -1.486015
v 0.104392 2.275220 -1.486015
v -0.102325 2.241111 -1.497473
v 0.103721 2.237449 -1.497473
vn -0.0017 -0.0980 -0.9952
vn -0.0052 -0.2902 -0.9570
vn -0.0084 -0.4713 -0.8820
vn -0.0113 -0.6342 -0.7731
vn -0.0137 -0.7728 -0.6345
vn -0.0157 -0.8817 -0.4715
vn -0.0170 -0.9568 -0.2903
vn -0.0177 -0.9950 -0.0980
vn -0.0177 -0.9950 0.0980
vn -0.0170 -0.9568 0.2903
vn -0.0157 -0.8817 0.4715
vn -0.0137 -0.7728 0.6345
vn -0.0113 -0.6342 0.7731
vn -0.0084 -0.4713 0.8820
vn -0.0052 -0.2902 0.9570
vn -0.0017 -0.0980 0.9952
vn 0.0017 0.0980 0.9952
vn 0.0052 0.2902 0.9570
vn 0.0084 0.4713 0.8820
vn 0.0113 0.6342 0.7731
vn 0.0137 0.7728 0.6345
vn 0.0157 0.8818 0.4715
vn 0.0170 0.9568 0.2903
vn 0.0177 0.9950 0.0980
vn 0.0177 0.9950 -0.0980
vn 0.0170 0.9568 -0.2903
vn 0.0157 0.8818 -0.4715
vn 0.0137 0.7728 -0.6345
vn 0.0113 0.6342 -0.7731
vn 0.0084 0.4713 -0.8820
vn 0.9998 -0.0178 0.0000
vn 0.0052 0.2902 -0.9570
vn 0.0017 0.0980 -0.9952
vn -0.9998 0.0178 0.0000
vn 0.0157 0.8817 0.4715
vn 0.0157 0.8817 -0.4715
s off
f 2//1 3//1 1//1
f 4//2 5//2 3//2
f 6//3 7//3 5//3
f 8//4 9//4 7//4
f 10//5 11//5 9//5
f 12//6 13//6 11//6
f 14//7 15//7 13//7
f 16//8 17//8 15//8
f 18//9 19//9 17//9
f 19//10 22//10 21//10
f 22//11 23//11 21//11
f 23//12 26//12 25//12
f 26//13 27//13 25//13
f 28//14 29//14 27//14
f 29//15 32//15 31//15
f 32//16 33//16 31//16
f 33//17 36//17 35//17
f 36//18 37//18 35//18
f 38//19 39//19 37//19
f 40//20 41//20 39//20
f 42//21 43//21 41//21
f 44//22 45//22 43//22
f 46//23 47//23 45//23
f 48//24 49//24 47//24
f 50//25 51//25 49//25
f 52//26 53//26 51//26
f 54//27 55//27 53//27
f 56//28 57//28 55//28
f 58//29 59//29 57//29
f 60//30 61//30 59//30
f 26//31 8//31 6//31
f 62//32 63//32 61//32
f 63//33 2//33 1//33
f 39//34 61//34 63//34
f 2//1 4//1 3//1
f 4//2 6//2 5//2
f 6//3 8//3 7//3
f 8//4 10//4 9//4
f 10//5 12//5 11//5
f 12//6 14//6 13//6
f 14//7 16//7 15//7
f 16//8 18//8 17//8
f 18//9 20//9 19//9
f 19//10 20//10 22//10
f 22//11 24//11 23//11
f 23//12 24//12 26//12
f 26//13 28//13 27//13
f 28//14 30//14 29//14
f 29//15 30//15 32//15
f 32//16 34//16 33//16
f 33//17 34//17 36//17
f 36//18 38//18 37//18
f 38//19 40//19 39//19
f 40//20 42//20 41//20
f 42//21 44//21 43//21
f 44//35 46//35 45//35
f 46//23 48//23 47//23
f 48//24 50//24 49//24
f 50//25 52//25 51//25
f 52//26 54//26 53//26
f 54//36 56//36 55//36
f 56//28 58//28 57//28
f 58//29 60//29 59//29
f 60//30 62//30 61//30
f 6//31 4//31 34//31
f 2//31 64//31 38//31
f 62//31 60//31 38//31
f 58//31 56//31 54//31
f 54//31 52//31 50//31
f 50//31 48//31 46//31
f 46//31 44//31 54//31
f 42//31 40//31 58//31
f 38//31 36//31 2//31
f 34//31 32//31 6//31
f 30//31 28//31 6//31
f 26//31 24//31 10//31
f 22//31 20//31 14//31
f 18//31 16//31 14//31
f 14//31 12//31 22//31
f 10//31 8//31 26//31
f 4//31 2//31 34//31
f 60//31 58//31 38//31
f 54//31 50//31 46//31
f 44//31 42//31 54//31
f 36//31 34//31 2//31
f 28//31 26//31 6//31
f 20//31 18//31 14//31
f 12//31 10//31 22//31
f 64//31 62//31 38//31
f 54//31 42//31 58//31
f 32//31 30//31 6//31
f 22//31 10//31 24//31
f 58//31 40//31 38//31
f 62//32 64//32 63//32
f 63//33 64//33 2//33
f 63//34 1//34 31//34
f 3//34 5//34 31//34
f 7//34 9//34 23//34
f 11//34 13//34 15//34
f 15//34 17//34 19//34
f 19//34 21//34 15//34
f 23//34 25//34 7//34
f 27//34 29//34 7//34
f 31//34 33//34 63//34
f 35//34 37//34 63//34
f 39//34 41//34 55//34
f 43//34 45//34 47//34
f 47//34 49//34 51//34
f 51//34 53//34 47//34
f 55//34 57//34 39//34
f 59//34 61//34 39//34
f 1//34 3//34 31//34
f 9//34 11//34 23//34
f 15//34 21//34 23//34
f 25//34 27//34 7//34
f 33//34 35//34 63//34
f 41//34 43//34 55//34
f 47//34 53//34 55//34
f 57//34 59//34 39//34
f 5//34 7//34 31//34
f 15//34 23//34 11//34
f 37//34 39//34 63//34
f 47//34 55//34 43//34
f 7//34 29//34 31//34
